<svg width="27" height="27" viewBox="0 0 27 27" fill="none" xmlns="http://www.w3.org/2000/svg">
<g clip-path="url(#clip0)">
<path d="M25.3126 2.25H23.0625C22.3171 2.25 21.6833 2.73616 21.4607 3.40795C20.4669 3.55782 20.1636 4.18536 20.0148 4.74119L19.4766 6.74969H0.562482C0.387614 6.74969 0.22266 6.83101 0.116189 6.96976C0.00971743 7.1085 -0.0261422 7.28885 0.0191042 7.45776L0.621967 9.70784C0.687885 9.95375 0.910689 10.1248 1.16529 10.1248H1.63811L3.03379 15.3329C3.03505 15.3379 3.0369 15.3424 3.03827 15.3472C3.0408 15.3556 3.04328 15.3641 3.04618 15.3723C3.0494 15.3816 3.05298 15.3905 3.05662 15.3993C3.05926 15.4058 3.06168 15.4123 3.06453 15.4187C3.07877 15.4505 3.09575 15.4803 3.1151 15.5082C3.11616 15.5096 3.11727 15.511 3.11827 15.5124C3.12708 15.5249 3.13641 15.5369 3.14611 15.5485C3.1488 15.5517 3.15165 15.5548 3.15434 15.5579C3.16267 15.5674 3.17132 15.5766 3.18023 15.5855C3.18408 15.5893 3.18793 15.5931 3.19183 15.5967C3.20011 15.6045 3.20866 15.612 3.21736 15.6192C3.22195 15.6231 3.22664 15.6271 3.23144 15.6308C3.24009 15.6375 3.24905 15.6439 3.25812 15.6501C3.26313 15.6536 3.26804 15.6573 3.2732 15.6605C3.28655 15.6691 3.3002 15.6771 3.31423 15.6845C3.32024 15.6878 3.32668 15.6904 3.33279 15.6935C3.34186 15.6978 3.35093 15.7021 3.36011 15.7061C3.36681 15.7089 3.37356 15.7114 3.38031 15.7139C3.39012 15.7175 3.39987 15.7209 3.40979 15.7241C3.41585 15.7259 3.42202 15.7278 3.42819 15.7295C3.44074 15.7329 3.45335 15.7359 3.46621 15.7385C3.47006 15.7393 3.47391 15.7402 3.47776 15.7409C3.49653 15.7443 3.51547 15.7468 3.53466 15.7483L16.7785 16.819L16.462 17.9998H4.48146C4.1708 17.9998 3.91894 18.2517 3.91894 18.5624C3.91894 18.873 4.17075 19.1249 4.48146 19.1249H6.03866L5.72547 20.2941C4.69651 20.5006 3.91899 21.411 3.91899 22.4999C3.91899 23.7406 4.92833 24.75 6.16897 24.75C6.17082 24.75 6.17256 24.7498 6.17445 24.7498H8.98158C9.29223 24.7498 9.5441 24.498 9.5441 24.1873C9.5441 23.8767 9.29229 23.6248 8.98158 23.6248H8.11636C8.30842 23.2936 8.41905 22.9095 8.41905 22.4999C8.41905 21.5046 7.7692 20.6588 6.87171 20.3629L7.20341 19.1249H14.1718L14.5035 20.3629C13.6062 20.6589 12.9563 21.5047 12.9563 22.4999C12.9563 23.7406 13.9657 24.75 15.2064 24.75C15.2082 24.75 15.21 24.7498 15.2118 24.7498H20.8314C21.1421 24.7498 21.3939 24.498 21.3939 24.1873C21.3939 23.8767 21.1421 23.6248 20.8314 23.6248H17.1538C17.3459 23.2936 17.4565 22.9095 17.4565 22.4999C17.4565 21.411 16.6788 20.5005 15.6498 20.294L15.3366 19.1249H16.892C16.8928 19.1249 16.8934 19.1251 16.8941 19.1251C16.9122 19.1251 16.9303 19.1239 16.948 19.1222C16.9522 19.1218 16.9563 19.1211 16.9605 19.1207C16.9734 19.1191 16.9861 19.1172 16.9987 19.1148C17.0049 19.1137 17.0113 19.1123 17.0174 19.1109C17.0275 19.1086 17.0375 19.106 17.0475 19.1032C17.0546 19.1012 17.0617 19.0992 17.0686 19.0969C17.0776 19.094 17.0864 19.0907 17.0951 19.0873C17.1022 19.0845 17.1095 19.0821 17.1164 19.0791C17.1306 19.073 17.1444 19.0662 17.158 19.0591C17.165 19.0553 17.1718 19.051 17.1788 19.0469C17.1864 19.0425 17.1939 19.038 17.2013 19.0333C17.2078 19.0291 17.214 19.0246 17.2204 19.0201C17.228 19.0146 17.2355 19.0091 17.2428 19.0032C17.2485 18.9988 17.2539 18.9943 17.2593 18.9897C17.2672 18.983 17.2749 18.9759 17.2825 18.9686C17.2869 18.9644 17.2914 18.9603 17.2957 18.9559C17.3045 18.9469 17.3129 18.9374 17.3212 18.9278C17.3238 18.9247 17.3266 18.9218 17.3293 18.9186C17.34 18.9057 17.3501 18.8921 17.3596 18.878C17.3619 18.8748 17.3637 18.8713 17.3659 18.868C17.3727 18.8574 17.3793 18.8468 17.3854 18.8357C17.3893 18.8288 17.3928 18.8216 17.3963 18.8145C17.4001 18.8068 17.404 18.7993 17.4074 18.7914C17.4113 18.7829 17.4147 18.7739 17.4182 18.7651C17.4208 18.7585 17.4232 18.7518 17.4255 18.7451C17.4289 18.7354 17.4319 18.7257 17.4347 18.7158C17.4355 18.7132 17.4364 18.7108 17.4372 18.7082L18.0377 16.4669C18.0382 16.4652 18.0387 16.4634 18.0391 16.4617L19.737 10.125H20.2097C20.4643 10.125 20.6871 9.95396 20.753 9.70806L21.356 7.45808C21.4013 7.28917 21.3654 7.10876 21.2589 6.97007C21.1525 6.83133 20.9876 6.74996 20.8127 6.74996H20.6413L21.1015 5.0326C21.1675 4.78606 21.2123 4.619 21.4883 4.54428C21.7325 5.17588 22.3459 5.62518 23.0625 5.62518H25.3126C26.2431 5.62518 27.0002 4.86817 27.0002 3.93772C27.0002 3.00701 26.2431 2.25 25.3126 2.25ZM7.29396 22.4999C7.29396 23.1194 6.79076 23.6233 6.17171 23.6248H6.16887C6.16839 23.6248 6.16802 23.6248 6.16765 23.6248C5.54797 23.6241 5.04398 23.1199 5.04398 22.4999C5.04398 21.88 5.54812 21.3756 6.16797 21.375C6.16844 21.375 6.16881 21.3751 6.16918 21.3751C6.16955 21.3751 6.17013 21.375 6.17055 21.375C6.79013 21.3759 7.29396 21.8801 7.29396 22.4999ZM16.3314 22.4999C16.3314 23.1194 15.8283 23.6233 15.2091 23.6248H15.2063C15.2058 23.6248 15.2054 23.6248 15.205 23.6248C14.5853 23.6241 14.0813 23.1199 14.0813 22.4999C14.0813 21.8801 14.5851 21.376 15.2046 21.375C15.2051 21.375 15.2055 21.3751 15.2058 21.3751C15.2064 21.3751 15.2068 21.375 15.2072 21.375C15.8273 21.3755 16.3314 21.8799 16.3314 22.4999ZM18.2708 11.2499H11.9526C11.642 11.2499 11.3901 11.5018 11.3901 11.8124C11.3901 12.1231 11.642 12.375 11.9526 12.375H17.9694L17.668 13.4999H14.7248C14.4142 13.4999 14.1623 13.7517 14.1623 14.0624C14.1623 14.3731 14.4141 14.6249 14.7248 14.6249H17.3665L17.0746 15.7143L4.01803 14.6588L2.80302 10.1249H18.5724L18.2708 11.2499ZM19.7781 8.99983H1.59698L1.2956 7.87479H19.9065C19.9072 7.87479 19.9079 7.87495 19.9086 7.87495C19.9097 7.87495 19.9108 7.87479 19.9119 7.87479H20.0795L19.7781 8.99983ZM25.3126 4.49998H23.0625C22.7523 4.49998 22.5002 4.2477 22.5002 3.93751C22.5002 3.62732 22.7524 3.37499 23.0625 3.37499H25.3126C25.6228 3.37499 25.8752 3.62732 25.8752 3.93751C25.8751 4.2477 25.6228 4.49998 25.3126 4.49998Z" fill="white"/>
<path d="M9.75905 12.3749H10.0966C10.4072 12.3749 10.6591 12.1231 10.6591 11.8124C10.6591 11.5018 10.4073 11.2499 10.0966 11.2499H9.75905C9.44845 11.2499 9.19653 11.5017 9.19653 11.8124C9.19659 12.1232 9.44845 12.3749 9.75905 12.3749Z" fill="white"/>
</g>
<defs>
<clipPath id="clip0">
<rect width="27" height="27" fill="white"/>
</clipPath>
</defs>
</svg>
