<svg width="27" height="26" viewBox="0 0 27 26" fill="none" xmlns="http://www.w3.org/2000/svg">
<path d="M19.0078 0H8.24219C4.04207 0 0.625 3.41707 0.625 7.61719V18.3828C0.625 22.5829 4.04207 26 8.24219 26H19.0078C23.2079 26 26.625 22.5829 26.625 18.3828V7.61719C26.625 3.41707 23.2079 0 19.0078 0ZM25.6094 18.3828C25.6094 22.0229 22.6479 24.9844 19.0078 24.9844H8.24219C4.60209 24.9844 1.64062 22.0229 1.64062 18.3828V7.61719C1.64062 3.97709 4.60209 1.01562 8.24219 1.01562H19.0078C22.6479 1.01562 25.6094 3.97709 25.6094 7.61719V18.3828Z" fill="white"/>
<path d="M13.984 22.8988C13.8896 22.8043 13.7586 22.75 13.625 22.75C13.4914 22.75 13.3604 22.8043 13.266 22.8988C13.1715 22.9932 13.1172 23.1243 13.1172 23.2578C13.1172 23.3914 13.1715 23.5224 13.266 23.6168C13.3604 23.7113 13.4914 23.7656 13.625 23.7656C13.7586 23.7656 13.8896 23.7113 13.984 23.6168C14.0785 23.5224 14.1328 23.3914 14.1328 23.2578C14.1328 23.1243 14.0785 22.9932 13.984 22.8988Z" fill="white"/>
<path d="M9.55378 7.90707C9.36198 7.70242 9.04068 7.69196 8.83598 7.88366L8.81349 7.90483C8.6095 8.09729 8.60016 8.41869 8.79267 8.62268C8.89255 8.72855 9.02718 8.78198 9.1621 8.78198C9.28712 8.78198 9.4124 8.73607 9.51051 8.6435L9.53037 8.62486C9.73502 8.43311 9.74553 8.11172 9.55378 7.90707Z" fill="white"/>
<path d="M13.6251 5.99231C12.5098 5.99231 11.3997 6.26099 10.4149 6.76931C10.1657 6.89794 10.0679 7.20426 10.1966 7.45349C10.3253 7.70267 10.6316 7.80038 10.8808 7.6718C11.7341 7.23127 12.6575 7.00793 13.6251 7.00793C16.9292 7.00793 19.6173 9.69604 19.6173 13.0001C19.6173 16.3042 16.9292 18.9923 13.6251 18.9923C10.321 18.9923 7.63293 16.3042 7.63293 13.0001C7.63293 11.9632 7.90182 10.9416 8.41055 10.0458C8.54903 9.80192 8.46361 9.49195 8.21971 9.35342C7.97581 9.21499 7.66589 9.30035 7.52736 9.54426C6.932 10.5927 6.61731 11.7877 6.61731 13.0001C6.61731 16.8642 9.76102 20.0079 13.6251 20.0079C17.4892 20.0079 20.6329 16.8642 20.6329 13.0001C20.6329 9.13602 17.4892 5.99231 13.6251 5.99231Z" fill="white"/>
<path d="M13.625 8.42969C11.1049 8.42969 9.05469 10.4799 9.05469 13C9.05469 15.5201 11.1049 17.5703 13.625 17.5703C16.1451 17.5703 18.1953 15.5201 18.1953 13C18.1953 10.4799 16.1451 8.42969 13.625 8.42969ZM13.625 16.5547C11.6649 16.5547 10.0703 14.9601 10.0703 13C10.0703 11.0399 11.6649 9.44531 13.625 9.44531C15.5851 9.44531 17.1797 11.0399 17.1797 13C17.1797 14.9601 15.5851 16.5547 13.625 16.5547Z" fill="white"/>
<path d="M20.2899 4.40527C19.2259 4.40527 18.3602 5.27094 18.3602 6.33496C18.3602 7.39898 19.2259 8.26465 20.2899 8.26465C21.3539 8.26465 22.2196 7.39898 22.2196 6.33496C22.2196 5.27094 21.3539 4.40527 20.2899 4.40527ZM20.2899 7.24902C19.7859 7.24902 19.3759 6.83896 19.3759 6.33496C19.3759 5.83096 19.7859 5.4209 20.2899 5.4209C20.7939 5.4209 21.204 5.83096 21.204 6.33496C21.204 6.83896 20.7939 7.24902 20.2899 7.24902Z" fill="white"/>
</svg>
