<svg width="26" height="26" viewBox="0 0 26 26" fill="none" xmlns="http://www.w3.org/2000/svg">
<path d="M6.75373 12.6459C5.91376 12.6459 5.23035 13.3292 5.23035 14.1693C5.23035 15.0092 5.91371 15.6926 6.75373 15.6926C7.59371 15.6926 8.27712 15.0092 8.27712 14.1693C8.27712 13.3293 7.59371 12.6459 6.75373 12.6459ZM6.75373 14.6771C6.47373 14.6771 6.24592 14.4493 6.24592 14.1693C6.24592 13.8893 6.47373 13.6614 6.75373 13.6614C7.03374 13.6614 7.26155 13.8893 7.26155 14.1693C7.26155 14.4493 7.03374 14.6771 6.75373 14.6771Z" fill="white"/>
<path d="M6.75375 10.8177C4.90572 10.8177 3.40234 12.3212 3.40234 14.1692C3.40234 16.0172 4.90577 17.5206 6.75375 17.5206C8.60179 17.5206 10.1052 16.0171 10.1052 14.1692C10.1052 12.3212 8.60173 10.8177 6.75375 10.8177ZM6.75375 16.505C5.46579 16.505 4.41792 15.4572 4.41792 14.1692C4.41792 12.8812 5.46579 11.8334 6.75375 11.8334C8.04172 11.8334 9.08959 12.8812 9.08959 14.1692C9.08959 15.4572 8.04172 16.505 6.75375 16.505Z" fill="white"/>
<path d="M19.2453 12.6459C18.4053 12.6459 17.7219 13.3292 17.7219 14.1693C17.7219 15.0092 18.4053 15.6926 19.2453 15.6926C20.0853 15.6926 20.7687 15.0092 20.7687 14.1693C20.7687 13.3293 20.0853 12.6459 19.2453 12.6459ZM19.2453 14.6771C18.9653 14.6771 18.7375 14.4493 18.7375 14.1693C18.7375 13.8893 18.9653 13.6614 19.2453 13.6614C19.5253 13.6614 19.7531 13.8893 19.7531 14.1693C19.7531 14.4493 19.5253 14.6771 19.2453 14.6771Z" fill="white"/>
<path d="M19.2453 10.8177C17.3973 10.8177 15.8939 12.3212 15.8939 14.1692C15.8939 16.0172 17.3973 17.5206 19.2453 17.5206C21.0934 17.5206 22.5967 16.0171 22.5967 14.1692C22.5968 12.3212 21.0934 10.8177 19.2453 10.8177ZM19.2453 16.505C17.9574 16.505 16.9095 15.4572 16.9095 14.1692C16.9095 12.8812 17.9574 11.8334 19.2453 11.8334C20.5333 11.8334 21.5812 12.8812 21.5812 14.1692C21.5812 15.4572 20.5333 16.505 19.2453 16.505Z" fill="white"/>
<path d="M24.062 18.1778C23.8616 17.9816 23.5401 17.9848 23.3439 18.185C23.3303 18.1989 23.3165 18.2128 23.3028 18.2265C23.1045 18.4249 23.1045 18.7464 23.3028 18.9447C23.402 19.0438 23.5319 19.0934 23.6619 19.0934C23.7918 19.0934 23.9218 19.0438 24.021 18.9447C24.0372 18.9285 24.0533 18.9122 24.0692 18.8959C24.2654 18.6957 24.2622 18.3741 24.062 18.1778Z" fill="white"/>
<path d="M25.8908 12.9622C25.7121 11.9735 25.3192 11.0504 24.7411 10.2435L25.9224 8.3437C26.0198 8.18714 26.0246 7.99006 25.9351 7.82888C25.8454 7.6677 25.6756 7.56771 25.4912 7.56771H20.8382C19.2553 6.36861 17.2911 5.56429 15.1449 5.23848C14.8679 5.19643 14.6088 5.38701 14.5667 5.66433C14.5246 5.9416 14.7152 6.20053 14.9925 6.24263C16.3359 6.44662 17.5984 6.85292 18.7244 7.43533C17.1167 7.55715 15.6218 8.24158 14.4698 9.3936C13.8287 10.0347 13.3325 10.782 12.9974 11.5958C12.0466 9.29737 9.86248 7.63373 7.27447 7.43538C8.40024 6.85307 9.6625 6.44677 11.0057 6.24273C11.2829 6.20063 11.4736 5.9417 11.4315 5.66438C11.3893 5.38712 11.1299 5.19638 10.8531 5.23858C8.70736 5.56454 6.74334 6.36877 5.16064 7.56771H0.507812C0.323426 7.56771 0.153512 7.6677 0.0639336 7.82888C-0.0256445 7.99006 -0.0207695 8.18714 0.0765781 8.3437L1.25943 10.246C0.467035 11.3526 0 12.7073 0 14.1691C0 17.8931 3.02966 20.9228 6.75365 20.9228C8.65582 20.9228 10.3765 20.1321 11.6051 18.8624L12.5853 20.3109C12.6798 20.4505 12.8373 20.5341 13.0059 20.5341C13.1744 20.5341 13.332 20.4505 13.4265 20.3109L14.3996 18.8728C14.4229 18.8969 14.446 18.921 14.4698 18.9447C15.7615 20.2365 17.499 20.9199 19.2582 20.9198C20.2178 20.9198 21.1842 20.7164 22.0878 20.2973C22.3423 20.1793 22.4528 19.8773 22.3349 19.623C22.2169 19.3687 21.915 19.258 21.6605 19.376C19.4853 20.3846 16.8842 19.9229 15.1879 18.2265C15.0383 18.0769 14.8983 17.9203 14.7675 17.7577C14.7527 17.736 14.7362 17.7153 14.7179 17.6959C13.9329 16.6923 13.5073 15.4634 13.5073 14.1691C13.5073 12.6364 14.1041 11.1955 15.188 10.1118C16.2717 9.02793 17.7127 8.43105 19.2453 8.43105C20.778 8.43105 22.219 9.02793 23.3028 10.1118C23.4527 10.2617 23.5926 10.4184 23.7232 10.5806C23.7308 10.5905 23.7386 10.6003 23.747 10.6097C25.0593 12.2606 25.3657 14.4902 24.5073 16.4617C24.3954 16.7188 24.5131 17.018 24.7703 17.1299C25.0274 17.2418 25.3266 17.1242 25.4385 16.867C25.9739 15.6372 26.1304 14.2869 25.8908 12.9622ZM2.96156 8.58344C2.59634 8.83217 2.25682 9.11583 1.94751 9.4294L1.42147 8.58344H2.96156ZM6.75365 19.9072C3.58962 19.9072 1.01557 17.3331 1.01557 14.1691C1.01557 11.0051 3.58962 8.43105 6.75365 8.43105C9.91768 8.43105 12.4917 11.0051 12.4917 14.1691C12.4917 17.3331 9.91763 19.9072 6.75365 19.9072ZM13.7233 18.0601L13.0059 19.1202L12.2798 18.0471C12.5646 17.6425 12.8059 17.2054 12.9974 16.7425C13.1881 17.2057 13.4311 17.6474 13.7233 18.0601ZM24.053 9.42687C24.0422 9.4159 24.0318 9.40452 24.021 9.3936C23.7178 9.09044 23.3907 8.82008 23.0442 8.58344H24.5775L24.053 9.42687Z" fill="white"/>
<path d="M13.0317 5.07732L12.9995 5.07727C12.7191 5.07727 12.4917 5.30467 12.4917 5.58508C12.4917 5.8655 12.7191 6.0929 12.9995 6.0929L13.0266 6.09295C13.0274 6.09295 13.0283 6.09295 13.0292 6.09295C13.3084 6.09295 13.5356 5.86727 13.5369 5.58767C13.5383 5.30726 13.3121 5.07879 13.0317 5.07732Z" fill="white"/>
</svg>
