<svg width="27" height="26" viewBox="0 0 27 26" fill="none" xmlns="http://www.w3.org/2000/svg">
<path d="M22.9541 17.4061L22.6965 16.9852C22.1929 16.1627 21.5834 15.4085 20.8851 14.7435L20.0236 13.9232C19.9417 13.8452 19.9295 13.7213 19.9944 13.6288L21.1707 11.9526C21.3404 11.7109 21.4969 11.4563 21.636 11.196L22.6412 9.31521C22.8164 8.98747 22.807 8.60138 22.6161 8.28247C22.4252 7.96362 22.0893 7.77293 21.7177 7.77253L19.542 7.77004C19.5415 7.77004 19.5411 7.77004 19.5407 7.77004C19.0849 7.77004 18.6721 8.03964 18.4889 8.45706L18.2584 8.98214C17.6705 10.3218 16.868 11.5433 15.8723 12.6143V8.78094C15.8723 8.22326 15.4186 7.76953 14.861 7.76953H11.7795C11.2735 7.76953 10.862 8.18116 10.862 8.68715C10.862 8.88037 10.9215 9.06547 11.0342 9.22228L11.2498 9.52265C11.4612 9.81703 11.5729 10.1642 11.5729 10.5267V13.3277C11.1929 12.8864 10.7302 12.2871 10.3386 11.598C9.73877 10.5428 9.30886 9.31232 9.10599 8.67273C8.9346 8.13252 8.43877 7.76953 7.87211 7.76953H5.6685C5.35752 7.76953 5.07152 7.91172 4.88363 8.15963C4.69589 8.4076 4.63653 8.72153 4.72088 9.02098L5.13195 10.4799C5.38388 11.3742 5.7302 12.2448 6.16129 13.0676C6.29139 13.316 6.59821 13.4119 6.84673 13.2817C7.0952 13.1516 7.19103 12.8447 7.06088 12.5962C6.6625 11.8358 6.34242 11.0311 6.10954 10.2045L5.70964 8.78516H7.87216C7.99418 8.78516 8.10098 8.86336 8.1379 8.9798C8.35285 9.65737 8.80988 10.9638 9.45567 12.0999C9.98552 13.032 10.6284 13.8085 11.0744 14.2958C11.3188 14.5628 11.6948 14.6507 12.0323 14.5195C12.3702 14.3882 12.5885 14.0691 12.5885 13.7067V10.5267C12.5885 9.95038 12.4108 9.39834 12.0748 8.93029L11.9706 8.78516H14.8567V12.8576C14.8567 13.1555 15.0063 13.4295 15.2569 13.5905C15.5075 13.7517 15.8188 13.774 16.0899 13.6502L16.2993 13.5546C16.3957 13.5107 16.4814 13.4493 16.5541 13.3721C17.6561 12.2018 18.5425 10.8621 19.1885 9.39021L19.4189 8.86514C19.4401 8.81679 19.4879 8.78561 19.5407 8.78561H19.5408L21.7165 8.7881C21.724 8.7881 21.7352 8.78815 21.7447 8.8041C21.7543 8.82009 21.749 8.82995 21.7455 8.8365L20.7404 10.7172C20.6205 10.9415 20.4856 11.1609 20.3394 11.3692L19.1631 13.0453C18.807 13.5528 18.8744 14.2312 19.3233 14.6587L20.1847 15.479C20.8192 16.0831 21.3729 16.7684 21.8303 17.5155L22.088 17.9364C22.0942 17.9466 22.113 17.9774 22.0896 18.0193C22.0661 18.0612 22.03 18.0612 22.0181 18.0612H20.1398C19.8984 18.0612 19.6635 17.9619 19.4953 17.7889L17.6171 15.8577C17.1745 15.4026 16.6128 15.0901 15.9927 14.954C15.7148 14.8929 15.4278 14.9602 15.2059 15.1387C14.984 15.3171 14.8568 15.5828 14.8568 15.8675V17.765C14.8568 17.9283 14.7239 18.0612 14.5606 18.0612C13.1051 18.0612 11.6668 17.5742 10.5106 16.69C10.0449 16.3337 9.60065 15.9408 9.19029 15.5223C8.99397 15.3221 8.67247 15.3188 8.47214 15.5152C8.27186 15.7116 8.26871 16.0331 8.46503 16.2333C8.90901 16.6862 9.38965 17.1112 9.89361 17.4967C11.2259 18.5157 12.8833 19.0768 14.5605 19.0768C15.2838 19.0768 15.8723 18.4883 15.8723 17.765V15.9697C16.259 16.0729 16.6088 16.2777 16.889 16.5659L18.7672 18.4971C19.1255 18.8655 19.6258 19.0768 20.1398 19.0768H22.0181C22.4149 19.0768 22.7818 18.8618 22.9756 18.5157C23.1695 18.1696 23.1613 17.7444 22.9541 17.4061Z" fill="white"/>
<path d="M7.9871 14.0945L7.98146 14.0866C7.81799 13.8587 7.50081 13.8063 7.27286 13.9698C7.04495 14.1333 6.99265 14.4505 7.15606 14.6784C7.15626 14.6788 7.15931 14.683 7.15951 14.6833L7.5744 14.3904L7.1617 14.6863C7.26087 14.8246 7.41672 14.8982 7.57485 14.8982C7.67723 14.8982 7.78067 14.8673 7.8703 14.8031C8.09821 14.6396 8.15051 14.3224 7.9871 14.0945Z" fill="white"/>
<path d="M11.2782 22.5469H7.13953C6.85911 22.5469 6.63171 22.7742 6.63171 23.0547C6.63171 23.3352 6.85911 23.5625 7.13953 23.5625H11.2782C11.5587 23.5625 11.786 23.3352 11.786 23.0547C11.786 22.7742 11.5586 22.5469 11.2782 22.5469Z" fill="white"/>
<path d="M13.5887 22.5469H13.5826C13.3022 22.5469 13.0748 22.7742 13.0748 23.0547C13.0748 23.3352 13.3022 23.5625 13.5826 23.5625H13.5887C13.8692 23.5625 14.0965 23.3352 14.0965 23.0547C14.0965 22.7742 13.8691 22.5469 13.5887 22.5469Z" fill="white"/>
<path d="M23.5233 0H4.22644C2.37836 0 0.874878 1.50348 0.874878 3.35156V22.6484C0.874878 24.4965 2.37836 26 4.22644 26H23.5233C25.3714 26 26.8749 24.4965 26.8749 22.6484V3.35156C26.8749 1.50348 25.3714 0 23.5233 0ZM25.8593 22.6484C25.8593 23.9365 24.8113 24.9844 23.5233 24.9844H4.22644C2.93842 24.9844 1.8905 23.9365 1.8905 22.6484V3.35156C1.8905 2.06355 2.93842 1.01562 4.22644 1.01562H23.5233C24.8113 1.01562 25.8593 2.06355 25.8593 3.35156V22.6484Z" fill="white"/>
</svg>
